<svg width="182" height="30" fill="none" xmlns="http://www.w3.org/2000/svg">
  <g clip-path="url(#a)">
    <path d="M14.262 15.219c-1.569-1.253-3.39-1.914-5.271-1.914-4.232 0-7.815 3.431-8.914 8.53-.192.91-.021 1.854.471 2.592.479.718 1.197 1.128 1.962 1.128h29.865c-5.644 0-8.477-2.03-12.753-5.715l-5.36-4.621Zm12.836-.996-1.484-8.558a3.489 3.489 0 0 0-1.483-2.31 3.507 3.507 0 0 0-2.693-.53L10.987 5.048a3.5 3.5 0 0 0-2.757 3.05l-.377 3.566c.376-.048.745-.11 1.135-.11 2.29 0 4.484.794 6.42 2.346l5.36 4.614c3.882 3.35 6.294 5.29 11.604 5.29a2.626 2.626 0 0 0 2.625-2.624c.003-1.39-1.616-6.53-7.9-6.957Z" fill="#000"/>
  </g>
  <path d="M51.075 10.275c0-1.325.625-1.95 1.775-1.95.6 0 1.15.175 1.575.475l1.025-2.825c-.725-.5-1.875-.725-2.975-.725-3.35 0-5.2 1.975-5.2 5v.6H45.2v3h2.075V24h3.9V13.85h3.35v-3h-3.45v-.575Zm10.574.075c-2.15 0-4.325.575-5.8 1.625l1.4 2.725c.975-.775 2.45-1.25 3.875-1.25 2.1 0 3.1.975 3.1 2.65h-3.1c-4.1 0-5.775 1.65-5.775 4.025 0 2.325 1.875 4.075 5.025 4.075 1.975 0 3.375-.65 4.1-1.875V24h3.65v-7.675c0-4.075-2.375-5.975-6.475-5.975Zm-.3 11.225c-1.375 0-2.2-.65-2.2-1.625 0-.9.575-1.575 2.4-1.575h2.675v1.375c-.45 1.225-1.575 1.825-2.875 1.825Zm14.03-9.25V10.55h-3.726V24h3.9v-6.35c0-2.575 1.425-3.75 3.576-3.75.3 0 .55.025.874.05v-3.6c-2.075 0-3.674.675-4.624 1.975Zm24.168-1.975c-2.025 0-3.775.825-4.85 2.2-.95-1.475-2.55-2.2-4.425-2.2-1.725 0-3.225.6-4.225 1.75v-1.55h-3.724V24h3.9v-6.75c0-2.4 1.225-3.525 2.95-3.525 1.624 0 2.55 1 2.55 3.175V24h3.9v-6.75c0-2.4 1.224-3.525 2.974-3.525 1.575 0 2.55 1 2.55 3.175V24h3.9v-7.7c0-4.1-2.3-5.95-5.5-5.95Zm19.318.2v1.725c-1.025-1.3-2.575-1.925-4.45-1.925-3.725 0-6.725 2.575-6.725 6.5s3 6.5 6.725 6.5c1.75 0 3.225-.55 4.25-1.675v.575c0 2.425-1.2 3.675-3.95 3.675-1.725 0-3.6-.6-4.75-1.525l-1.55 2.8c1.575 1.225 4.05 1.85 6.6 1.85 4.85 0 7.55-2.3 7.55-7.3v-11.2h-3.7Zm-3.675 9.6c-2.05 0-3.55-1.325-3.55-3.3 0-1.975 1.5-3.3 3.55-3.3s3.525 1.325 3.525 3.3c0 1.975-1.475 3.3-3.525 3.3Zm16.43-9.8c-2.15 0-4.325.575-5.8 1.625l1.4 2.725c.975-.775 2.45-1.25 3.875-1.25 2.1 0 3.1.975 3.1 2.65h-3.1c-4.1 0-5.775 1.65-5.775 4.025 0 2.325 1.875 4.075 5.025 4.075 1.975 0 3.375-.65 4.1-1.875V24h3.65v-7.675c0-4.075-2.375-5.975-6.475-5.975Zm-.3 11.225c-1.375 0-2.2-.65-2.2-1.625 0-.9.575-1.575 2.4-1.575h2.675v1.375c-.45 1.225-1.575 1.825-2.875 1.825Zm27.529-11.225c-2.025 0-3.775.825-4.85 2.2-.95-1.475-2.55-2.2-4.425-2.2-1.725 0-3.225.6-4.225 1.75v-1.55h-3.725V24h3.9v-6.75c0-2.4 1.225-3.525 2.95-3.525 1.625 0 2.55 1 2.55 3.175V24h3.9v-6.75c0-2.4 1.225-3.525 2.975-3.525 1.575 0 2.55 1 2.55 3.175V24h3.9v-7.7c0-4.1-2.3-5.95-5.5-5.95Zm22.317 6.975c0-4.325-3.05-6.975-7-6.975-4.1 0-7.175 2.9-7.175 6.925 0 4 3.025 6.925 7.675 6.925 2.425 0 4.3-.75 5.55-2.175l-2.075-2.25c-.925.875-1.95 1.3-3.375 1.3-2.05 0-3.475-1.025-3.85-2.7h10.175c.025-.325.075-.75.075-1.05Zm-6.975-4.025c1.75 0 3.025 1.1 3.3 2.8h-6.625c.275-1.725 1.55-2.8 3.325-2.8Z" fill="#000"/>
  <defs>
    <clipPath id="a">
      <path fill="#fff" transform="translate(0 1)" d="M0 0h35v28H0z"/>
    </clipPath>
  </defs>
</svg>
